<svg width="48" height="48" viewBox="0 0 48 48" fill="none" xmlns="http://www.w3.org/2000/svg">
<g clip-path="url(#clip0_149_0)">
<rect width="48" height="48" fill="white"/>
<path d="M22.0979 6.8541C22.6966 5.01148 25.3034 5.01148 25.9021 6.8541L28.7148 15.5106C28.9825 16.3347 29.7505 16.8926 30.6169 16.8926H39.7189C41.6564 16.8926 42.4619 19.3718 40.8945 20.5106L33.5308 25.8607C32.8298 26.37 32.5365 27.2727 32.8043 28.0967L35.6169 36.7533C36.2157 38.5959 34.1067 40.1282 32.5393 38.9894L25.1756 33.6393C24.4746 33.13 23.5254 33.13 22.8244 33.6393L15.4607 38.9894C13.8933 40.1282 11.7843 38.5959 12.3831 36.7533L15.1957 28.0967C15.4635 27.2727 15.1702 26.37 14.4692 25.8607L7.1055 20.5106C5.53807 19.3718 6.34362 16.8926 8.28107 16.8926H17.3831C18.2495 16.8926 19.0175 16.3347 19.2852 15.5106L22.0979 6.8541Z" fill="#ECECEC"/>
</g>
<defs>
<clipPath id="clip0_149_0">
<rect width="48" height="48" fill="white"/>
</clipPath>
</defs>
</svg>
